<svg width="132" height="36" viewBox="0 0 132 36" fill="none" xmlns="http://www.w3.org/2000/svg">
<path d="M71.338 0.850982C71.77 0.399982 72.34 0.105982 72.958 0.0159818C73.282 -0.0330182 74.101 0.0369818 74.411 0.139982C76.292 0.769982 76.886 3.07398 75.537 4.50098C74.977 5.09298 74.289 5.37098 73.386 5.36898C71.818 5.36798 70.613 4.21498 70.613 2.71698C70.613 1.92798 70.824 1.38398 71.338 0.850982ZM49.089 2.76498C50.099 1.21898 51.915 0.373982 54.52 0.238982L55.405 0.193982C55.489 0.190982 55.607 0.200982 55.67 0.217982L55.783 0.247982V4.09898L55.191 4.12698C54.257 4.17398 53.645 4.39698 53.323 4.80398C52.961 5.26298 52.858 5.65898 52.822 6.71798L52.795 7.53598H59.365V3.05598H64.004V7.53598H68.09V11.31L66.06 11.323L64.03 11.336V15.968C64.03 19.555 64.044 20.646 64.094 20.808C64.196 21.146 64.457 21.486 64.711 21.613C65.093 21.805 65.392 21.842 66.766 21.869L68.09 21.896V25.772L66.161 25.745C64.076 25.716 63.547 25.665 62.773 25.422C60.783 24.797 59.742 23.475 59.44 21.188C59.377 20.718 59.364 19.805 59.364 15.965V11.311H52.808V25.758H48.117V11.311H46.049V7.53598H48.117V6.75798C48.117 5.08898 48.442 3.75198 49.087 2.76498H49.089ZM0.024 25.733L0.013 14.267L0 2.79798L5.914 2.81798C11.067 2.83498 11.98 2.83598 12.868 2.98198C13.076 3.01598 13.283 3.05798 13.543 3.10998C15.901 3.58498 17.95 4.64998 19.447 6.18398C20.259 7.01398 20.753 7.70198 21.259 8.70698C22.15 10.48 22.517 12.138 22.513 14.382C22.508 16.457 22.162 18.05 21.362 19.692C20.358 21.755 18.715 23.378 16.573 24.422C15.315 25.035 14.047 25.41 12.534 25.616C11.679 25.731 11.655 25.732 5.851 25.733H0.024ZM29.128 8.08998C30.002 7.64898 30.951 7.37598 31.927 7.28598C32.722 7.20798 33.783 7.25898 34.523 7.41198C35.914 7.69998 37.211 8.42698 38.258 9.50698L38.786 10.054V7.53598H43.478L43.465 16.635L43.452 25.734H38.812L38.798 24.433L38.785 23.134L38.573 23.402C37.804 24.374 36.453 25.292 35.23 25.673C34.021 26.051 32.404 26.134 31.153 25.881C28.748 25.397 26.707 23.799 25.56 21.505C24.852 20.088 24.531 18.747 24.477 16.974C24.445 15.896 24.503 15.143 24.693 14.193C25.054 12.384 25.956 10.669 27.186 9.45498C27.654 8.99198 28.485 8.40798 29.128 8.08898V8.08998ZM115.5 9.74898C116.984 8.26698 118.85 7.45798 121.226 7.26598C121.708 7.22698 123.096 7.28098 123.622 7.35898C125.602 7.65298 127.217 8.44098 128.516 9.74598C129.262 10.498 129.662 11.061 130.104 11.982C130.682 13.188 130.951 14.315 131.018 15.818C131.046 16.448 130.981 17.669 130.905 17.919C130.881 18.003 130.518 18.007 124.219 18.007H117.559L117.593 18.296C117.671 18.941 117.957 19.807 118.239 20.255C119.112 21.634 120.659 22.351 122.411 22.185C123.463 22.086 124.119 21.794 124.782 21.129C125.029 20.884 125.294 20.555 125.407 20.361L125.603 20.021H128.068C130.098 20.021 130.532 20.033 130.532 20.088C130.532 20.367 129.934 21.632 129.473 22.327C128.955 23.108 127.905 24.132 127.07 24.67C125.636 25.594 124.06 26.017 122.059 26.017C120.258 26.016 118.949 25.716 117.519 24.973C115.985 24.177 114.777 22.954 113.968 21.38C113.207 19.899 112.903 18.525 112.907 16.598C112.913 13.688 113.738 11.507 115.5 9.74898ZM86.721 7.98798C87.361 7.67698 88.188 7.42498 88.845 7.34098C90.016 7.19298 91.487 7.33198 92.574 7.69598C93.96 8.15898 95.242 9.11998 96.002 10.266C96.163 10.509 96.301 10.707 96.308 10.707C96.316 10.707 96.413 10.565 96.526 10.392C97.474 8.92998 99.18 7.81198 101.042 7.43098C101.345 7.36898 101.857 7.31398 102.292 7.29798C105.434 7.17598 107.969 8.56398 109.201 11.083C109.666 12.034 109.916 13.037 110.006 14.312C110.039 14.785 110.054 17.027 110.044 20.398L110.029 25.734L107.722 25.746L105.414 25.76L105.413 20.461C105.413 17.221 105.394 15.025 105.362 14.81C105.323 14.556 105.271 14.304 105.208 14.054C104.872 12.747 103.972 11.829 102.655 11.451C102.116 11.296 100.691 11.284 100.144 11.431C98.758 11.802 97.842 12.745 97.459 14.194L97.322 14.709L97.306 20.235L97.291 25.76L94.985 25.746L92.679 25.734L92.651 20.146C92.631 15.952 92.608 14.502 92.561 14.332C92.288 13.334 91.988 12.803 91.382 12.243C90.922 11.818 90.369 11.543 89.692 11.403C89.278 11.318 89.077 11.305 88.442 11.327C87.605 11.355 87.232 11.432 86.677 11.687C86.189 11.912 85.741 12.263 85.417 12.678C85.064 13.128 84.87 13.528 84.697 14.155L84.559 14.659L84.545 20.209L84.53 25.76L82.224 25.746L79.918 25.734L79.893 7.53598H84.533V9.69898L84.923 9.29298C85.436 8.74898 86.046 8.30598 86.721 7.98798ZM71.079 16.698C71.072 11.728 71.077 7.63298 71.09 7.59898C71.108 7.54898 71.619 7.53598 73.41 7.53598H75.707V25.76L73.399 25.746L71.092 25.734L71.079 16.698ZM4.721 12.218C4.464 13.019 4.414 13.358 4.414 14.281C4.414 15.195 4.479 15.616 4.747 16.421C5.052 17.331 5.528 18.114 6.229 18.855C7.283 19.955 8.676 20.668 10.184 20.88C11.149 21.016 12.477 20.863 13.435 20.503C15.284 19.808 16.782 18.24 17.397 16.358C17.644 15.601 17.722 15.099 17.719 14.256C17.715 12.502 17.109 10.989 15.889 9.68598C15.096 8.83898 13.904 8.13798 12.736 7.83198C12.185 7.68798 12.048 7.67198 11.222 7.65598C10.568 7.64398 10.202 7.66098 9.911 7.71498C8.469 7.98398 7.273 8.62598 6.266 9.67098C5.495 10.473 5.04 11.223 4.721 12.218ZM118.155 13.172C117.944 13.572 117.689 14.323 117.641 14.683L117.608 14.936H126.246V14.764C126.246 14.152 125.917 13.209 125.524 12.695C124.621 11.514 123.128 10.918 121.429 11.062C120.318 11.156 119.321 11.661 118.63 12.48C118.451 12.696 118.292 12.928 118.155 13.172ZM31.347 12.083C30.272 12.807 29.505 14.035 29.281 15.388C28.973 17.249 29.371 19.004 30.386 20.246C31.694 21.849 33.783 22.402 35.719 21.655C37.301 21.045 38.397 19.653 38.705 17.859C38.81 17.249 38.812 16.057 38.71 15.458C38.345 13.321 36.938 11.814 34.903 11.382C34.492 11.296 33.416 11.297 33.011 11.386C32.359 11.529 31.856 11.74 31.347 12.083ZM76.289 32.214C76.417 31.908 76.657 31.704 77.018 31.595C77.202 31.539 77.723 31.541 77.921 31.596C78.325 31.712 78.632 32.069 78.632 32.423V32.604H77.942L77.863 32.406C77.802 32.251 77.749 32.198 77.616 32.163C77.403 32.106 77.171 32.168 77.052 32.314C76.933 32.458 76.967 32.701 77.141 32.952C77.28 33.152 78.549 34.367 78.616 34.365C78.638 34.363 78.756 34.205 78.876 34.012L79.095 33.662H79.469C79.685 33.662 79.843 33.683 79.843 33.712C79.843 33.74 79.685 34.018 79.492 34.329L79.141 34.896L80.221 35.922L79.739 35.924C79.264 35.927 79.254 35.924 79.109 35.771C79.022 35.681 78.928 35.598 78.829 35.521C78.699 35.428 78.696 35.429 78.526 35.557C77.761 36.137 76.504 36.149 75.889 35.582C75.675 35.384 75.506 34.992 75.505 34.69C75.505 34.187 75.858 33.683 76.395 33.423L76.552 33.347L76.433 33.171C76.211 32.845 76.162 32.518 76.289 32.214ZM34.637 32.853C34.925 32.275 35.445 31.847 36.068 31.674C36.459 31.566 37.259 31.601 37.633 31.744C38.257 31.982 38.722 32.458 38.943 33.083C39.03 33.331 39.046 33.471 39.029 33.863C39.013 34.271 38.987 34.392 38.851 34.68C38.304 35.844 36.855 36.308 35.638 35.708C35.188 35.485 34.855 35.144 34.635 34.68C34.484 34.36 34.475 34.309 34.475 33.762C34.475 33.213 34.483 33.168 34.637 32.853ZM60.762 33.47C60.897 32.6 61.52 31.913 62.391 31.67C62.908 31.526 63.735 31.609 64.214 31.853C64.571 32.035 65.115 32.61 65.115 32.805C65.115 32.836 64.95 32.856 64.706 32.856C64.297 32.856 64.296 32.856 64.1 32.66C63.818 32.379 63.59 32.284 63.139 32.261C62.649 32.237 62.33 32.336 62.015 32.613C61.676 32.911 61.571 33.147 61.544 33.669C61.507 34.41 61.751 34.873 62.33 35.157C62.582 35.28 62.677 35.298 63.072 35.298C63.47 35.298 63.559 35.28 63.788 35.16C64.067 35.014 64.256 34.804 64.382 34.503C64.437 34.371 64.475 34.291 64.451 34.242C64.41 34.161 64.202 34.165 63.627 34.165H62.795V33.559L65.291 33.586L65.286 33.939C65.273 34.766 64.717 35.505 63.86 35.832C63.459 35.985 62.64 35.987 62.229 35.837C61.224 35.471 60.607 34.474 60.762 33.47ZM87.208 34.102C87.034 33.008 87.717 31.983 88.825 31.675C89.226 31.564 90.021 31.598 90.396 31.744C90.834 31.914 91.141 32.152 91.387 32.509L91.608 32.831L91.166 32.846L90.725 32.861L90.554 32.662C90.285 32.348 89.988 32.23 89.476 32.234C89.141 32.237 88.996 32.262 88.808 32.351C88.467 32.508 88.2 32.791 88.065 33.141C87.908 33.555 87.937 34.176 88.128 34.55C88.393 35.063 88.871 35.331 89.521 35.329C90.014 35.328 90.467 35.111 90.636 34.795C90.701 34.674 90.725 34.669 91.149 34.669C91.394 34.669 91.595 34.682 91.595 34.698C91.595 34.796 91.296 35.204 91.087 35.391C90.789 35.659 90.476 35.812 90.035 35.906C89.61 35.996 89.328 35.995 88.933 35.901C88.006 35.683 87.352 35.001 87.209 34.101L87.208 34.102ZM92.93 32.315C93.166 32.053 93.631 31.775 94.011 31.671C94.535 31.527 95.359 31.608 95.838 31.853C96.195 32.035 96.739 32.61 96.739 32.805C96.739 32.836 96.575 32.856 96.331 32.856H95.924L95.705 32.632C95.585 32.509 95.446 32.404 95.294 32.324C95.033 32.208 94.316 32.207 94.049 32.32C93.484 32.559 93.148 33.081 93.145 33.728C93.138 34.691 93.722 35.321 94.621 35.322C95.17 35.322 95.35 35.257 95.666 34.941L95.939 34.669H96.792L96.686 34.875C96.138 35.948 94.412 36.314 93.347 35.583C92.227 34.814 92.035 33.309 92.93 32.315ZM97.804 32.746C98.04 32.284 98.634 31.828 99.205 31.671C99.49 31.593 100.166 31.582 100.466 31.651C101.597 31.912 102.338 32.999 102.146 34.117C101.885 35.636 100.247 36.413 98.771 35.719C97.682 35.206 97.241 33.847 97.804 32.746ZM123.053 32.853C123.341 32.275 123.862 31.847 124.485 31.677C125.05 31.526 125.798 31.596 126.323 31.851C126.612 31.991 127.009 32.373 127.149 32.647L127.256 32.856H126.811C126.375 32.856 126.363 32.853 126.255 32.708C126.051 32.432 125.725 32.287 125.259 32.262C124.713 32.234 124.417 32.33 124.085 32.646C123.742 32.972 123.605 33.344 123.634 33.87C123.682 34.725 124.179 35.237 125.032 35.308C125.791 35.371 126.407 34.97 126.567 34.305L126.599 34.168L125.754 34.154L124.908 34.14V33.586L126.164 33.573L127.418 33.559L127.395 33.976C127.378 34.297 127.339 34.46 127.229 34.691C126.428 36.368 123.904 36.392 123.081 34.73C122.895 34.354 122.891 34.336 122.891 33.765C122.891 33.213 122.9 33.167 123.053 32.853ZM1.059 35.927V31.649H1.815V35.927H1.059ZM2.926 35.927V31.644L3.313 31.658L3.701 31.674L4.789 33.232L5.876 34.79L5.89 33.219L5.903 31.649H6.658V35.932L6.268 35.916L5.877 35.902L4.792 34.345L3.707 32.789L3.694 34.358L3.681 35.927H2.926ZM7.516 32.201V31.649H10.693V32.202H9.482V35.927H8.726V32.201H7.516ZM11.601 35.927V31.649H14.123V32.202H12.357V33.46H13.926L13.91 33.75L13.896 34.04L12.357 34.067V35.374H14.122V35.927H11.601ZM15.182 35.927V31.649H16.131C16.855 31.649 17.145 31.667 17.353 31.73C17.752 31.847 18.035 32.063 18.188 32.364C18.301 32.585 18.317 32.672 18.301 32.983C18.275 33.495 18.097 33.775 17.652 34.007C17.472 34.099 17.33 34.195 17.337 34.218C17.344 34.241 17.587 34.635 17.878 35.094L18.407 35.927H17.51L16.99 35.072L16.47 34.215H15.888V35.927H15.182ZM19.418 35.927V31.649H19.81L20.2 31.65L22.369 34.764L22.382 33.206L22.396 31.649H23.152V35.927H22.407L20.2 32.759L20.173 35.927H19.418ZM24.141 35.587C24.481 34.687 25.567 31.814 25.599 31.737C25.628 31.662 25.7 31.649 26.069 31.649H26.505L27.3 33.755C27.736 34.912 28.094 35.876 28.094 35.896C28.094 35.915 27.92 35.924 27.707 35.916L27.321 35.902L27.167 35.485L27.011 35.069L25.099 35.096L24.951 35.512L24.801 35.927H24.013L24.141 35.587ZM28.75 31.649H31.928V32.202H30.717V35.927H29.96V32.201H28.75V31.649ZM32.784 35.927V31.649H33.541V35.927H32.784ZM39.946 35.927V31.649H40.69L41.705 33.102C42.263 33.902 42.765 34.61 42.82 34.675C42.919 34.794 42.919 34.793 42.921 33.222L42.923 31.649H43.628V35.927H43.263L42.898 35.925L40.729 32.804L40.702 35.927H39.946ZM44.537 35.893C44.537 35.872 44.894 34.908 45.33 33.751L46.124 31.649H46.561C46.93 31.649 47.003 31.662 47.031 31.737L47.789 33.737L48.566 35.789L48.62 35.927H47.828L47.666 35.5L47.505 35.071H45.609L45.458 35.486L45.307 35.902L44.922 35.916C44.71 35.925 44.537 35.915 44.537 35.893ZM49.479 35.927V31.649H50.235V35.374H51.75V35.927H49.479ZM54.372 35.927V31.649H55.128V35.374H56.641V35.927H54.372ZM57.398 35.927V31.649H59.92V32.202H58.155V33.46H59.719V34.064H58.152L58.166 34.707L58.18 35.348L59.92 35.375V35.927H57.398ZM65.932 35.867C65.945 35.831 66.305 34.867 66.733 33.725L67.511 31.648L67.957 31.66L68.403 31.674L69.069 33.435C69.435 34.404 69.796 35.361 69.87 35.562L70.005 35.927H69.214L69.062 35.512L68.911 35.096L67.005 35.069L66.85 35.485L66.695 35.902L66.302 35.916C65.998 35.928 65.915 35.916 65.932 35.867ZM70.864 35.927V31.649H71.621V35.374H73.134V35.927H70.864ZM83.395 33.461L84.054 31.712C84.07 31.667 84.21 31.649 84.519 31.649H84.963L85.74 33.726C86.169 34.867 86.529 35.831 86.541 35.867C86.559 35.917 86.474 35.928 86.167 35.916L85.77 35.902L85.619 35.486L85.466 35.07L84.513 35.083L83.559 35.096L83.405 35.512L83.25 35.927H82.468L82.613 35.537L83.395 33.461ZM103.185 35.046C103.073 34.803 103.069 34.74 103.054 33.222L103.039 31.649H103.801V33.148C103.801 34.602 103.804 34.654 103.914 34.871C104.074 35.188 104.342 35.328 104.794 35.329C105.175 35.33 105.38 35.27 105.56 35.105C105.804 34.882 105.818 34.778 105.818 33.16V31.648H106.574V33.175C106.574 34.905 106.558 35.005 106.212 35.398C105.821 35.841 105.143 36.047 104.452 35.933C103.823 35.83 103.415 35.544 103.185 35.046ZM107.684 35.927V31.649H108.076H108.466L109.551 33.206L110.635 34.763L110.648 33.206L110.661 31.649H111.416V35.927H110.674L109.57 34.34L108.466 32.754L108.439 35.927H107.684ZM112.325 32.201V31.649H115.452V32.202H114.292V35.927H113.535V32.201H112.325ZM116.359 35.927V31.649H117.116V35.927H116.359ZM118.226 35.927V31.649H119.011L121.201 34.788V31.649H121.958V35.927H121.22L120.114 34.339L119.008 32.749L118.994 34.339L118.981 35.927H118.226ZM15.899 32.985L15.913 33.637L16.468 33.634C17.099 33.631 17.259 33.579 17.438 33.314C17.519 33.192 17.56 33.046 17.553 32.899C17.553 32.555 17.338 32.323 16.953 32.252C16.551 32.178 15.941 32.187 15.91 32.268C15.896 32.304 15.89 32.628 15.899 32.985ZM35.351 34.505C35.595 35.045 36.078 35.333 36.744 35.333C37.228 35.333 37.498 35.237 37.816 34.951C38.234 34.574 38.398 33.791 38.188 33.184C38.063 32.822 37.662 32.41 37.345 32.315C37.057 32.229 36.625 32.201 36.379 32.252C35.925 32.342 35.539 32.64 35.339 33.058C35.182 33.399 35.188 34.143 35.351 34.505ZM98.498 34.537C98.766 35.081 99.221 35.341 99.896 35.337C100.472 35.333 100.952 35.072 101.191 34.631C101.654 33.776 101.352 32.698 100.55 32.351C100.297 32.242 99.819 32.197 99.5 32.252C98.772 32.379 98.325 32.982 98.333 33.823C98.337 34.152 98.361 34.259 98.498 34.537ZM26.064 34.467C26.626 34.467 26.788 34.453 26.77 34.404L26.43 33.485C26.257 33.015 26.099 32.612 26.079 32.591C26.059 32.569 25.884 32.983 25.689 33.51L25.334 34.467H26.064ZM46.554 34.467C46.942 34.467 47.26 34.449 47.26 34.427C47.26 34.395 46.89 33.378 46.617 32.659C46.591 32.592 46.557 32.56 46.539 32.588C46.506 32.641 45.848 34.411 45.848 34.447C45.848 34.458 46.166 34.467 46.554 34.467ZM67.234 34.448C67.234 34.458 67.559 34.467 67.958 34.467H68.684L68.333 33.524C68.141 33.006 67.974 32.572 67.963 32.561C67.951 32.549 67.93 32.572 67.917 32.61L67.562 33.555C67.381 34.035 67.234 34.438 67.234 34.448ZM84.498 34.457C84.885 34.464 85.209 34.464 85.218 34.455C85.238 34.435 84.582 32.641 84.536 32.591C84.516 32.57 84.342 32.977 84.147 33.497L83.793 34.442L84.498 34.457ZM76.656 35.289C76.868 35.412 77.367 35.419 77.648 35.302C77.906 35.195 78.178 35.011 78.178 34.944C78.178 34.88 77.045 33.813 76.978 33.813C76.951 33.813 76.82 33.887 76.688 33.977C76.139 34.349 76.124 34.979 76.656 35.288V35.289Z" fill="#1A1D56"/>
<path d="M12.1213 12.4401C11.1593 12.8721 10.3423 13.2721 10.2473 13.3551C10.1093 13.4741 9.92531 13.8411 9.29931 15.2341C8.87331 16.1851 8.53431 16.9951 8.54931 17.0341C8.56931 17.0741 8.60931 17.1011 8.65431 17.1021C8.69731 17.1021 9.49431 16.7621 10.4273 16.3461C11.8433 15.7131 12.1493 15.5581 12.2903 15.4011C12.4013 15.2771 12.7093 14.6591 13.2093 13.5541C13.6233 12.6401 13.9613 11.8551 13.9613 11.8091C13.9613 11.7641 13.9313 11.7151 13.8933 11.7001C13.8553 11.6861 13.0593 12.0191 12.1213 12.4401Z" fill="#D1B33C"/>
</svg>
