<svg width="24" height="24" viewBox="0 0 24 24" fill="none" xmlns="http://www.w3.org/2000/svg">
<g clip-path="url(#clip0_6194_323)">
<path d="M21.9368 5.68388C20.887 3.86042 19.4101 2.46645 17.5012 1.47434C15.5899 0.494797 13.3721 0 10.8453 0H3.55149H0V23.9914H2.45891V23.9964H10.8479C13.3746 23.9964 15.5924 23.5016 17.5038 22.512C19.4151 21.5325 20.8895 20.136 21.9393 18.3426C22.9792 16.5393 23.5041 14.4395 23.5041 12.0334C23.5041 9.62719 22.9792 7.50735 21.9393 5.6864L21.9368 5.68388ZM11.5285 18.9706C7.67563 18.9706 4.55113 15.8461 4.55113 11.9932C4.55113 8.14029 7.67563 5.01578 11.5285 5.01578C15.3814 5.01578 18.5059 8.14029 18.5059 11.9932C18.5059 15.8461 15.3814 18.9706 11.5285 18.9706Z" fill="white"/>
<path d="M14.3641 9.53928L12.8219 12.9551C12.7164 13.1862 12.5306 13.3721 12.2995 13.4776L8.89116 15.0122C8.76306 15.07 8.62994 14.9393 8.68771 14.8087L10.2248 11.3954C10.3278 11.1668 10.5112 10.9835 10.7397 10.8805L14.1606 9.33584C14.2887 9.27807 14.4218 9.40867 14.3641 9.53928Z" fill="#D6B303"/>
</g>
<defs>
<clipPath id="clip0_6194_323">
<rect width="23.5016" height="23.9939" fill="white"/>
</clipPath>
</defs>
</svg>
