<svg preserveAspectRatio="none" width="100%" height="100%" overflow="visible" style="display: block;" viewBox="0 0 22 22" fill="none" xmlns="http://www.w3.org/2000/svg">
<g id="Icon">
<g id="Shape">
<path d="M9.13 7.88333L7.26 4.76667L9.13 1.65H12.87L14.74 4.76667H11L9.13 7.88333Z" fill="var(--fill-0, white)"/>
<path d="M18.48 11L16.61 7.88333H12.87L14.74 4.76667H18.48L20.35 7.88333L18.48 11Z" fill="var(--fill-0, white)"/>
<path d="M14.74 17.2333H18.48L20.35 14.1167L18.48 11H14.74L16.61 14.1167L14.74 17.2333Z" fill="var(--fill-0, white)"/>
<path d="M7.26 17.2333H11L12.87 14.1167L14.74 17.2333L12.87 20.35H9.13L7.26 17.2333Z" fill="var(--fill-0, white)"/>
<path d="M3.52 11H7.26L5.39 7.88333L7.26 4.76667H3.52L1.65 7.88333L3.52 11Z" fill="var(--fill-0, white)"/>
<path d="M3.52 11L1.65 14.1167L3.52 17.2333H7.26L9.13 14.1167H5.39L3.52 11Z" fill="var(--fill-0, white)"/>
</g>
</g>
</svg>
