<svg width="234" height="184" viewBox="0 0 234 184" fill="none" xmlns="http://www.w3.org/2000/svg">
<foreignObject x="-31.2314" y="-3.35783" width="296.135" height="223.363"><div xmlns="http://www.w3.org/1999/xhtml" style="backdrop-filter:blur(17.85px);clip-path:url(#bgblur_0_6256_544_clip_path);height:100%;width:100%"></div></foreignObject><g filter="url(#filter0_di_6256_544)" data-figma-bg-blur-radius="35.6923">
<rect x="5.29688" y="33.1709" width="223.077" height="150.305" rx="22.3077" fill="#EBC60A" fill-opacity="0.3" shape-rendering="crispEdges"/>
<rect x="5.29688" y="33.1709" width="223.077" height="150.305" rx="22.3077" fill="url(#paint0_linear_6256_544)" fill-opacity="0.25" shape-rendering="crispEdges"/>
<rect x="5.29688" y="33.1709" width="223.077" height="150.305" rx="22.3077" fill="url(#paint1_linear_6256_544)" fill-opacity="0.2" shape-rendering="crispEdges"/>
<rect x="5.29688" y="33.1709" width="223.077" height="150.305" rx="22.3077" stroke="#EFEFEF" stroke-width="1.67308" shape-rendering="crispEdges"/>
</g>
<foreignObject x="31.3359" y="-24" width="160" height="195.195"><div xmlns="http://www.w3.org/1999/xhtml" style="backdrop-filter:blur(12px);clip-path:url(#bgblur_1_6256_544_clip_path);height:100%;width:100%"></div></foreignObject><g data-figma-bg-blur-radius="24">
<rect x="55.3359" width="112" height="147.195" rx="16" fill="#F8F8F8" fill-opacity="0.01"/>
<rect x="55.3359" width="112" height="147.195" rx="16" fill="white" fill-opacity="0.4"/>
<rect x="56.0859" y="0.75" width="110.5" height="145.695" rx="15.25" stroke="url(#paint2_linear_6256_544)" stroke-opacity="0.25" stroke-width="1.5"/>
</g>
<foreignObject x="20.9513" y="-20.8901" width="180.769" height="242.855"><div xmlns="http://www.w3.org/1999/xhtml" style="backdrop-filter:blur(12px);clip-path:url(#bgblur_2_6256_544_clip_path);height:100%;width:100%"></div></foreignObject><g filter="url(#filter2_d_6256_544)" data-figma-bg-blur-radius="24">
<rect x="58.3359" y="3.10986" width="106" height="144.085" rx="16" fill="#F8F8F8" fill-opacity="0.01"/>
<rect x="58.3359" y="3.10986" width="106" height="144.085" rx="16" fill="white"/>
<rect x="59.0859" y="3.85986" width="104.5" height="142.585" rx="15.25" stroke="url(#paint3_linear_6256_544)" stroke-opacity="0.25" stroke-width="1.5"/>
</g>
<rect opacity="0.75" x="71.8359" y="96.6709" width="15" height="4" rx="2" fill="#FAE05F"/>
<rect opacity="0.75" x="92.8359" y="96.6709" width="15" height="4" rx="2" fill="#FAE05F"/>
<rect opacity="0.75" x="113.836" y="96.6709" width="37" height="4" rx="2" fill="#FAE05F"/>
<foreignObject x="66.3446" y="4.63078" width="89.9826" height="92.3239"><div xmlns="http://www.w3.org/1999/xhtml" style="backdrop-filter:blur(6.5px);clip-path:url(#bgblur_4_6256_544_clip_path);height:100%;width:100%"></div></foreignObject><g data-figma-bg-blur-radius="12.9913">
<g clip-path="url(#clip3_6256_544)">
<path d="M79.3359 51.9634C79.3359 69.6365 93.6628 83.9634 111.336 83.9634C129.009 83.9634 143.336 69.6365 143.336 51.9634V49.6219C143.336 31.9488 129.009 17.6219 111.336 17.6219C93.6628 17.6219 79.3359 31.9488 79.3359 49.6219V51.9634Z" fill="#F6EFCC"/>
<path d="M103.336 50.7925L91.3359 50.7925" stroke="#D6B303" stroke-width="1.5" stroke-linecap="round"/>
<path d="M119.336 50.7925L131.336 50.7925" stroke="#D6B303" stroke-width="1.5" stroke-linecap="round"/>
<path d="M122.252 48.8462C122.926 50.0562 122.926 51.5288 122.252 52.7389L118.48 59.5114C117.774 60.7791 116.436 61.565 114.985 61.565L107.687 61.565C106.236 61.565 104.898 60.7791 104.192 59.5114L100.42 52.7389C99.746 51.5288 99.746 50.0562 100.42 48.8462L104.192 42.0737C104.898 40.8059 106.236 40.02 107.687 40.02L114.985 40.02C116.436 40.02 117.774 40.8059 118.48 42.0737L122.252 48.8462Z" fill="#D6B303"/>
<path opacity="0.1" d="M128.513 47.2651C129.734 49.4583 129.734 52.1276 128.513 54.3208L122.969 64.2749C121.689 66.5726 119.265 67.9965 116.635 67.9966L106.037 67.9966C103.407 67.9965 100.983 66.5726 99.7031 64.2749L94.1592 54.3208C92.9376 52.1276 92.9377 49.4583 94.1592 47.2651L99.7031 37.311C100.983 35.0133 103.407 33.5885 106.037 33.5884L116.635 33.5884C119.265 33.5885 121.689 35.0133 122.969 37.311L128.513 47.2651Z" stroke="url(#paint4_linear_6256_544)" stroke-width="1.5"/>
<foreignObject x="117.336" y="36.5732" width="28" height="47.1056"><div xmlns="http://www.w3.org/1999/xhtml" style="backdrop-filter:blur(4px);clip-path:url(#bgblur_5_6256_544_clip_path);height:100%;width:100%"></div></foreignObject><g filter="url(#filter4_di_6256_544)" data-figma-bg-blur-radius="8">
<ellipse cx="131.336" cy="50.7927" rx="6.21951" ry="6" transform="rotate(-90 131.336 50.7927)" fill="#F8F8F8" fill-opacity="0.01" shape-rendering="crispEdges"/>
<ellipse cx="131.336" cy="50.7927" rx="6.21951" ry="6" transform="rotate(-90 131.336 50.7927)" fill="#EBC60A" fill-opacity="0.3" shape-rendering="crispEdges"/>
<path d="M126.086 50.7925C126.086 47.7462 128.462 45.3228 131.336 45.3228C134.21 45.3228 136.586 47.7462 136.586 50.7925C136.586 53.8388 134.21 56.2622 131.336 56.2622C128.462 56.2622 126.086 53.8388 126.086 50.7925Z" stroke="url(#paint5_linear_6256_544)" stroke-opacity="0.25" stroke-width="1.5" shape-rendering="crispEdges"/>
</g>
<ellipse cx="131.336" cy="50.7926" rx="3.10976" ry="3" transform="rotate(-90 131.336 50.7926)" fill="#D6B303"/>
<foreignObject x="77.3359" y="36.5732" width="28" height="47.1056"><div xmlns="http://www.w3.org/1999/xhtml" style="backdrop-filter:blur(4px);clip-path:url(#bgblur_6_6256_544_clip_path);height:100%;width:100%"></div></foreignObject><g filter="url(#filter5_di_6256_544)" data-figma-bg-blur-radius="8">
<ellipse cx="91.3359" cy="50.7927" rx="6.21951" ry="6" transform="rotate(-90 91.3359 50.7927)" fill="#F8F8F8" fill-opacity="0.01" shape-rendering="crispEdges"/>
<ellipse cx="91.3359" cy="50.7927" rx="6.21951" ry="6" transform="rotate(-90 91.3359 50.7927)" fill="#EBC60A" fill-opacity="0.3" shape-rendering="crispEdges"/>
<path d="M86.0859 50.7925C86.086 47.7462 88.4617 45.3228 91.3359 45.3228C94.2102 45.3228 96.5858 47.7462 96.5859 50.7925C96.5859 53.8388 94.2103 56.2622 91.3359 56.2622C88.4616 56.2622 86.0859 53.8388 86.0859 50.7925Z" stroke="url(#paint6_linear_6256_544)" stroke-opacity="0.25" stroke-width="1.5" shape-rendering="crispEdges"/>
</g>
<ellipse cx="91.3359" cy="50.7926" rx="3.10976" ry="3" transform="rotate(-90 91.3359 50.7926)" fill="#D6B303"/>
</g>
</g>
<foreignObject x="-45.5102" y="63.8247" width="324.001" height="186.923"><div xmlns="http://www.w3.org/1999/xhtml" style="backdrop-filter:blur(24.92px);clip-path:url(#bgblur_7_6256_544_clip_path);height:100%;width:100%"></div></foreignObject><g data-figma-bg-blur-radius="49.8462">
<path d="M4.33594 133.609C4.33594 126.63 4.33594 123.141 5.69416 120.475C6.88889 118.13 8.79527 116.224 11.1401 115.029C13.8057 113.671 17.2953 113.671 24.2744 113.671H208.705C215.684 113.671 219.174 113.671 221.84 115.029C224.184 116.224 226.091 118.13 227.285 120.475C228.644 123.141 228.644 126.63 228.644 133.609V161.025C228.644 174.983 228.644 181.962 225.927 187.293C223.538 191.983 219.725 195.796 215.035 198.185C209.704 200.902 202.725 200.902 188.767 200.902H44.2129C30.2546 200.902 23.2755 200.902 17.9442 198.185C13.2546 195.796 9.44185 191.983 7.05239 187.293C4.33594 181.962 4.33594 174.983 4.33594 161.025V133.609Z" fill="white" fill-opacity="0.02"/>
<path d="M4.33594 133.609C4.33594 126.63 4.33594 123.141 5.69416 120.475C6.88889 118.13 8.79527 116.224 11.1401 115.029C13.8057 113.671 17.2953 113.671 24.2744 113.671H208.705C215.684 113.671 219.174 113.671 221.84 115.029C224.184 116.224 226.091 118.13 227.285 120.475C228.644 123.141 228.644 126.63 228.644 133.609V161.025C228.644 174.983 228.644 181.962 225.927 187.293C223.538 191.983 219.725 195.796 215.035 198.185C209.704 200.902 202.725 200.902 188.767 200.902H44.2129C30.2546 200.902 23.2755 200.902 17.9442 198.185C13.2546 195.796 9.44185 191.983 7.05239 187.293C4.33594 181.962 4.33594 174.983 4.33594 161.025V133.609Z" fill="url(#paint7_linear_6256_544)" fill-opacity="0.2"/>
<path d="M24.2744 114.839H208.705C212.214 114.839 214.776 114.84 216.795 115.005C218.801 115.169 220.169 115.489 221.31 116.07C223.434 117.153 225.161 118.881 226.244 121.006C226.825 122.146 227.146 123.514 227.31 125.52C227.475 127.539 227.476 130.101 227.476 133.609V161.024C227.476 168.023 227.474 173.201 227.14 177.299C226.806 181.382 226.147 184.289 224.887 186.763C222.609 191.232 218.975 194.867 214.505 197.145C212.031 198.405 209.125 199.064 205.041 199.397C200.944 199.732 195.765 199.733 188.767 199.733H44.2129C37.2145 199.733 32.0358 199.732 27.9385 199.397C23.8549 199.064 20.9481 198.405 18.4746 197.145C14.0049 194.867 10.3712 191.232 8.09375 186.763C6.83346 184.289 6.17349 181.382 5.83984 177.299C5.50509 173.201 5.50391 168.023 5.50391 161.024V133.609C5.50391 130.101 5.50493 127.539 5.66992 125.52C5.83379 123.514 6.15425 122.146 6.73535 121.006C7.81808 118.881 9.54593 117.153 11.6709 116.07C12.8115 115.489 14.1791 115.169 16.1846 115.005C18.2039 114.84 20.7656 114.839 24.2744 114.839Z" stroke="url(#paint8_linear_6256_544)" stroke-opacity="0.5" stroke-width="2.33654"/>
</g>
<defs>
<filter id="filter0_di_6256_544" x="-31.2314" y="-3.35783" width="296.135" height="223.363" filterUnits="userSpaceOnUse" color-interpolation-filters="sRGB">
<feFlood flood-opacity="0" result="BackgroundImageFix"/>
<feColorMatrix in="SourceAlpha" type="matrix" values="0 0 0 0 0 0 0 0 0 0 0 0 0 0 0 0 0 0 127 0" result="hardAlpha"/>
<feMorphology radius="4.46154" operator="dilate" in="SourceAlpha" result="effect1_dropShadow_6256_544"/>
<feOffset/>
<feComposite in2="hardAlpha" operator="out"/>
<feColorMatrix type="matrix" values="0 0 0 0 0.923509 0 0 0 0 0.776856 0 0 0 0 0.0394045 0 0 0 0.5 0"/>
<feBlend mode="normal" in2="BackgroundImageFix" result="effect1_dropShadow_6256_544"/>
<feBlend mode="normal" in="SourceGraphic" in2="effect1_dropShadow_6256_544" result="shape"/>
<feColorMatrix in="SourceAlpha" type="matrix" values="0 0 0 0 0 0 0 0 0 0 0 0 0 0 0 0 0 0 127 0" result="hardAlpha"/>
<feOffset/>
<feGaussianBlur stdDeviation="4.46154"/>
<feComposite in2="hardAlpha" operator="arithmetic" k2="-1" k3="1"/>
<feColorMatrix type="matrix" values="0 0 0 0 1 0 0 0 0 1 0 0 0 0 1 0 0 0 1 0"/>
<feBlend mode="multiply" in2="shape" result="effect2_innerShadow_6256_544"/>
</filter>
<clipPath id="bgblur_0_6256_544_clip_path" transform="translate(31.2314 3.35783)"><rect x="5.29688" y="33.1709" width="223.077" height="150.305" rx="22.3077"/>
</clipPath><clipPath id="bgblur_1_6256_544_clip_path" transform="translate(-31.3359 24)"><rect x="55.3359" width="112" height="147.195" rx="16"/>
</clipPath><filter id="filter2_d_6256_544" x="20.9513" y="-20.8901" width="180.769" height="242.855" filterUnits="userSpaceOnUse" color-interpolation-filters="sRGB">
<feFlood flood-opacity="0" result="BackgroundImageFix"/>
<feColorMatrix in="SourceAlpha" type="matrix" values="0 0 0 0 0 0 0 0 0 0 0 0 0 0 0 0 0 0 127 0" result="hardAlpha"/>
<feOffset dy="37.3846"/>
<feGaussianBlur stdDeviation="18.6923"/>
<feComposite in2="hardAlpha" operator="out"/>
<feColorMatrix type="matrix" values="0 0 0 0 0.846191 0 0 0 0 0.846191 0 0 0 0 0.846191 0 0 0 0.3 0"/>
<feBlend mode="multiply" in2="BackgroundImageFix" result="effect1_dropShadow_6256_544"/>
<feBlend mode="normal" in="SourceGraphic" in2="effect1_dropShadow_6256_544" result="shape"/>
</filter>
<clipPath id="bgblur_2_6256_544_clip_path" transform="translate(-20.9513 20.8901)"><rect x="58.3359" y="3.10986" width="106" height="144.085" rx="16"/>
</clipPath><clipPath id="bgblur_4_6256_544_clip_path" transform="translate(-66.3446 -4.63078)"><path d="M79.3359 51.9634C79.3359 69.6365 93.6628 83.9634 111.336 83.9634C129.009 83.9634 143.336 69.6365 143.336 51.9634V49.6219C143.336 31.9488 129.009 17.6219 111.336 17.6219C93.6628 17.6219 79.3359 31.9488 79.3359 49.6219V51.9634Z"/>
</clipPath><filter id="filter4_di_6256_544" x="117.336" y="36.5732" width="28" height="47.1056" filterUnits="userSpaceOnUse" color-interpolation-filters="sRGB">
<feFlood flood-opacity="0" result="BackgroundImageFix"/>
<feColorMatrix in="SourceAlpha" type="matrix" values="0 0 0 0 0 0 0 0 0 0 0 0 0 0 0 0 0 0 127 0" result="hardAlpha"/>
<feMorphology radius="10.6667" operator="erode" in="SourceAlpha" result="effect1_dropShadow_6256_544"/>
<feOffset dy="21.3333"/>
<feGaussianBlur stdDeviation="8"/>
<feComposite in2="hardAlpha" operator="out"/>
<feColorMatrix type="matrix" values="0 0 0 0 0 0 0 0 0 0 0 0 0 0 0 0 0 0 0.4 0"/>
<feBlend mode="multiply" in2="BackgroundImageFix" result="effect1_dropShadow_6256_544"/>
<feBlend mode="normal" in="SourceGraphic" in2="effect1_dropShadow_6256_544" result="shape"/>
<feColorMatrix in="SourceAlpha" type="matrix" values="0 0 0 0 0 0 0 0 0 0 0 0 0 0 0 0 0 0 127 0" result="hardAlpha"/>
<feOffset/>
<feGaussianBlur stdDeviation="2.66667"/>
<feComposite in2="hardAlpha" operator="arithmetic" k2="-1" k3="1"/>
<feColorMatrix type="matrix" values="0 0 0 0 0.972549 0 0 0 0 0.972549 0 0 0 0 0.972549 0 0 0 0.25 0"/>
<feBlend mode="normal" in2="shape" result="effect2_innerShadow_6256_544"/>
</filter>
<clipPath id="bgblur_5_6256_544_clip_path" transform="translate(-117.336 -36.5732)"><ellipse cx="131.336" cy="50.7927" rx="6.21951" ry="6" transform="rotate(-90 131.336 50.7927)"/>
</clipPath><filter id="filter5_di_6256_544" x="77.3359" y="36.5732" width="28" height="47.1056" filterUnits="userSpaceOnUse" color-interpolation-filters="sRGB">
<feFlood flood-opacity="0" result="BackgroundImageFix"/>
<feColorMatrix in="SourceAlpha" type="matrix" values="0 0 0 0 0 0 0 0 0 0 0 0 0 0 0 0 0 0 127 0" result="hardAlpha"/>
<feMorphology radius="10.6667" operator="erode" in="SourceAlpha" result="effect1_dropShadow_6256_544"/>
<feOffset dy="21.3333"/>
<feGaussianBlur stdDeviation="8"/>
<feComposite in2="hardAlpha" operator="out"/>
<feColorMatrix type="matrix" values="0 0 0 0 0 0 0 0 0 0 0 0 0 0 0 0 0 0 0.4 0"/>
<feBlend mode="multiply" in2="BackgroundImageFix" result="effect1_dropShadow_6256_544"/>
<feBlend mode="normal" in="SourceGraphic" in2="effect1_dropShadow_6256_544" result="shape"/>
<feColorMatrix in="SourceAlpha" type="matrix" values="0 0 0 0 0 0 0 0 0 0 0 0 0 0 0 0 0 0 127 0" result="hardAlpha"/>
<feOffset/>
<feGaussianBlur stdDeviation="2.66667"/>
<feComposite in2="hardAlpha" operator="arithmetic" k2="-1" k3="1"/>
<feColorMatrix type="matrix" values="0 0 0 0 0.972549 0 0 0 0 0.972549 0 0 0 0 0.972549 0 0 0 0.25 0"/>
<feBlend mode="normal" in2="shape" result="effect2_innerShadow_6256_544"/>
</filter>
<clipPath id="bgblur_6_6256_544_clip_path" transform="translate(-77.3359 -36.5732)"><ellipse cx="91.3359" cy="50.7927" rx="6.21951" ry="6" transform="rotate(-90 91.3359 50.7927)"/>
</clipPath><clipPath id="bgblur_7_6256_544_clip_path" transform="translate(45.5102 -63.8247)"><path d="M4.33594 133.609C4.33594 126.63 4.33594 123.141 5.69416 120.475C6.88889 118.13 8.79527 116.224 11.1401 115.029C13.8057 113.671 17.2953 113.671 24.2744 113.671H208.705C215.684 113.671 219.174 113.671 221.84 115.029C224.184 116.224 226.091 118.13 227.285 120.475C228.644 123.141 228.644 126.63 228.644 133.609V161.025C228.644 174.983 228.644 181.962 225.927 187.293C223.538 191.983 219.725 195.796 215.035 198.185C209.704 200.902 202.725 200.902 188.767 200.902H44.2129C30.2546 200.902 23.2755 200.902 17.9442 198.185C13.2546 195.796 9.44185 191.983 7.05239 187.293C4.33594 181.962 4.33594 174.983 4.33594 161.025V133.609Z"/>
</clipPath><linearGradient id="paint0_linear_6256_544" x1="-19.1022" y1="239.117" x2="233.217" y2="39.2858" gradientUnits="userSpaceOnUse">
<stop stop-color="white" stop-opacity="0"/>
<stop offset="0.799429" stop-color="white" stop-opacity="0.2"/>
</linearGradient>
<linearGradient id="paint1_linear_6256_544" x1="104.984" y1="127.111" x2="231.447" y2="37.5077" gradientUnits="userSpaceOnUse">
<stop stop-color="white" stop-opacity="0"/>
<stop offset="1" stop-color="white" stop-opacity="0.2"/>
</linearGradient>
<linearGradient id="paint2_linear_6256_544" x1="111.336" y1="-1.67034e-06" x2="187.934" y2="147.125" gradientUnits="userSpaceOnUse">
<stop stop-color="white" stop-opacity="0.4"/>
<stop offset="0.4" stop-color="white" stop-opacity="0.01"/>
<stop offset="0.6" stop-color="white" stop-opacity="0.01"/>
<stop offset="1" stop-color="white" stop-opacity="0.1"/>
</linearGradient>
<linearGradient id="paint3_linear_6256_544" x1="111.336" y1="3.10986" x2="187.75" y2="145.016" gradientUnits="userSpaceOnUse">
<stop stop-color="white" stop-opacity="0.4"/>
<stop offset="0.4" stop-color="white" stop-opacity="0.01"/>
<stop offset="0.6" stop-color="white" stop-opacity="0.01"/>
<stop offset="1" stop-color="white" stop-opacity="0.1"/>
</linearGradient>
<linearGradient id="paint4_linear_6256_544" x1="131.336" y1="50.7927" x2="91.3359" y2="50.7927" gradientUnits="userSpaceOnUse">
<stop stop-color="#F8F8F8" stop-opacity="0.9"/>
<stop offset="1" stop-color="#F8F8F8" stop-opacity="0.3"/>
</linearGradient>
<linearGradient id="paint5_linear_6256_544" x1="125.336" y1="50.7927" x2="138.639" y2="45.7089" gradientUnits="userSpaceOnUse">
<stop stop-color="white" stop-opacity="0.4"/>
<stop offset="0.4" stop-color="white" stop-opacity="0.01"/>
<stop offset="0.6" stop-color="white" stop-opacity="0.01"/>
<stop offset="1" stop-color="white" stop-opacity="0.1"/>
</linearGradient>
<linearGradient id="paint6_linear_6256_544" x1="85.3359" y1="50.7927" x2="98.6385" y2="45.7089" gradientUnits="userSpaceOnUse">
<stop stop-color="white" stop-opacity="0.4"/>
<stop offset="0.4" stop-color="white" stop-opacity="0.01"/>
<stop offset="0.6" stop-color="white" stop-opacity="0.01"/>
<stop offset="1" stop-color="white" stop-opacity="0.1"/>
</linearGradient>
<linearGradient id="paint7_linear_6256_544" x1="4.33594" y1="113.671" x2="-3.93085" y2="272.532" gradientUnits="userSpaceOnUse">
<stop stop-color="white" stop-opacity="0.4"/>
<stop offset="0.516741" stop-color="white" stop-opacity="0"/>
</linearGradient>
<linearGradient id="paint8_linear_6256_544" x1="116.49" y1="157.286" x2="16.7312" y2="52.0722" gradientUnits="userSpaceOnUse">
<stop stop-color="white" stop-opacity="0"/>
<stop offset="1" stop-color="white" stop-opacity="0.5"/>
</linearGradient>
<clipPath id="clip3_6256_544">
<path d="M79.3359 51.9634C79.3359 69.6365 93.6628 83.9634 111.336 83.9634C129.009 83.9634 143.336 69.6365 143.336 51.9634V49.6219C143.336 31.9488 129.009 17.6219 111.336 17.6219C93.6628 17.6219 79.3359 31.9488 79.3359 49.6219V51.9634Z" fill="white"/>
</clipPath>
</defs>
</svg>
