<svg width="27" height="27" viewBox="0 0 27 27" fill="none" xmlns="http://www.w3.org/2000/svg">
<g clip-path="url(#clip0_6194_834)">
<path d="M24.3718 6.3148C23.2054 4.28893 21.5646 2.74023 19.4439 1.638C17.3204 0.54972 14.8564 0 12.0492 0H3.9457H0V26.6544H2.73186V26.66H12.052C14.8592 26.66 17.3232 26.1103 19.4467 25.0109C21.5702 23.9226 23.2082 22.3711 24.3746 20.3787C25.5299 18.3751 26.1131 16.0423 26.1131 13.3691C26.1131 10.6958 25.5299 8.34067 24.3746 6.31759L24.3718 6.3148ZM12.8082 21.0763C8.52763 21.0763 5.05631 17.605 5.05631 13.3244C5.05631 9.04387 8.52763 5.57254 12.8082 5.57254C17.0888 5.57254 20.5601 9.04387 20.5601 13.3244C20.5601 17.605 17.0888 21.0763 12.8082 21.0763Z" fill="#161535"/>
<path d="M15.9586 10.5981L14.2452 14.3931C14.128 14.6498 13.9215 14.8563 13.6648 14.9735L9.87817 16.6785C9.73586 16.7427 9.58796 16.5976 9.65214 16.4525L11.3599 12.6602C11.4743 12.4063 11.678 12.2026 11.9319 12.0882L15.7325 10.3721C15.8749 10.3079 16.0228 10.453 15.9586 10.5981Z" fill="#D6B303"/>
</g>
<defs>
<clipPath id="clip0_6194_834">
<rect width="26.1103" height="26.6572" fill="white"/>
</clipPath>
</defs>
</svg>
