<svg xmlns="http://www.w3.org/2000/svg" width="100%" height="100%" fill="none" overflow="visible" preserveAspectRatio="none" style="display:block" viewBox="0 0 47 49"><g id="#089"><path id="Vector" stroke="var(--stroke-0, #BCA530)" stroke-linejoin="round" stroke-width="2" d="M43.8783 12.75L23.5371 24.5M43.8783 12.75L37.0981 8.83345M43.8783 12.75V20.598M43.8783 12.75L37.0981 16.6665M43.8783 36.25L23.5371 48M43.8783 36.25V28.4459M43.8783 36.25L37.0981 40.1665M23.5371 48L16.7567 44.0833M23.5371 48V40.1665M23.5371 48L30.3176 44.0833M3.196 12.75L9.97618 16.6665M3.196 12.75L9.97618 8.83345M3.196 12.75V20.598M23.5371 24.5L16.7567 20.5833M23.5371 24.5V32.3333M23.5371 24.5L30.3176 20.5833M30.3176 20.5833L23.5371 16.6667M30.3176 20.5833L37.0981 16.6665M30.3176 20.5833V28.4214M30.3176 44.0833L37.0981 40.1665M30.3176 44.0833V36.2596M37.0981 16.6665L30.3177 12.75M37.0981 16.6665V24.5096M37.0981 40.1665V32.3527M16.7567 20.5833L9.97618 16.6665M16.7567 20.5833L23.5371 16.6667M16.7567 20.5833V28.4214M16.7567 44.0833L9.97618 40.1665M16.7567 44.0833V36.2596M9.97618 16.6665L16.7566 12.75M9.97618 16.6665V24.5096M9.97618 40.1665L3.196 36.25V28.4459M9.97618 40.1665V32.3527M30.3176 4.91672L23.5371 1L16.7567 4.91672M30.3176 4.91672L23.5371 8.83333M30.3176 4.91672L37.0981 8.83345M16.7567 4.91672L23.5371 8.83333M16.7567 4.91672L9.97618 8.83345M23.5371 8.83333L30.3177 12.75M23.5371 8.83333L16.7566 12.75M37.0981 8.83345L30.3177 12.75M9.97618 8.83345L16.7566 12.75M43.8783 28.4459V20.598M43.8783 28.4459L37.0981 32.3527M23.5371 40.1665V32.3333M23.5371 40.1665L30.3176 36.2596M23.5371 40.1665L16.7567 36.2596M43.8783 20.598L37.0981 24.5096M23.5371 32.3333L30.3176 28.4214M23.5371 32.3333L16.7567 28.4214M3.196 28.4459V20.598M3.196 28.4459L9.97618 32.3527M3.196 20.598L9.97618 24.5096M23.5371 16.6667L30.3177 12.75M23.5371 16.6667L16.7566 12.75M30.3176 28.4214V36.2596M30.3176 28.4214L37.0981 24.5096M37.0981 32.3527L30.3176 36.2596M37.0981 32.3527V24.5096M16.7567 36.2596V28.4214M16.7567 36.2596L9.97618 32.3527M16.7567 28.4214L9.97618 24.5096M9.97618 24.5096V32.3527"/><g id="Group 1249"><path id="Vector_2" stroke="var(--stroke-0, #BCA530)" stroke-linejoin="round" stroke-width="2" d="M9.9762 40.1666L3.19602 36.25V28.4459M9.9762 40.1666V32.3527M9.9762 40.1666L16.7566 44.0833M9.9762 32.3527L3.19602 28.4459M9.9762 32.3527L16.7566 36.2596M9.9762 32.3527L9.97614 24.5096M3.19602 28.4459V20.5979M16.7566 44.0833V36.2596M16.7566 44.0833L23.5371 48V40.1666M16.7566 36.2596L23.5371 40.1666M16.7566 36.2596L16.7566 28.4215M23.5371 40.1666V32.3333M23.5371 32.3333L16.7566 28.4215M23.5371 32.3333V24.5L16.7566 20.5833M16.7566 28.4215L9.97614 24.5096M16.7566 28.4215V20.5833M9.97614 24.5096L3.19602 20.5979M9.97614 24.5096V16.6666M3.19602 20.5979V12.75L9.97614 16.6666M16.7566 20.5833L9.97614 16.6666"/><path id="Vector_3" stroke="var(--stroke-0, #BCA530)" stroke-linejoin="round" stroke-width="2" d="M23.5371 24.4999L30.3176 20.5832L23.5371 16.6665L16.7566 20.5832L23.5371 24.4999Z"/><path id="Vector_4" stroke="var(--stroke-0, #BCA530)" stroke-linejoin="round" stroke-width="2" d="M30.3176 4.91674L23.5371 8.83335M30.3176 4.91674L37.0981 8.83347L30.3177 12.75M30.3176 4.91674L23.5371 1L16.7566 4.91674M23.5371 8.83335L30.3177 12.75M23.5371 8.83335L16.7566 4.91674M23.5371 8.83335L16.7566 12.75M30.3177 12.75L37.0981 16.6665L30.3176 20.5833M30.3177 12.75L23.5371 16.6667M9.97618 16.6665L3.196 12.75L9.97618 8.83344M9.97618 16.6665L16.7566 12.75M9.97618 16.6665L16.7566 20.5833L23.5371 16.6667M16.7566 12.75L9.97618 8.83344M16.7566 12.75L23.5371 16.6667M16.7566 12.75L23.5372 8.83335L30.3178 12.75L23.5372 16.6667L16.7566 12.75ZM9.97618 8.83344L16.7566 4.91674M23.5371 16.6667L30.3176 20.5833M30.3176 20.5833L23.5371 24.5V32.3333L30.3176 28.4214V20.5833ZM37.0979 16.6665L43.8781 12.75L37.0979 8.83344L30.3176 12.75L37.0979 16.6665Z"/><path id="Vector_5" stroke="var(--stroke-0, #BCA530)" stroke-linejoin="round" stroke-width="2" d="M37.0981 16.6666L30.3176 20.5833V28.4215M37.0981 16.6666V24.5096M37.0981 16.6666L43.8783 12.75V20.598M30.3176 28.4215L37.0981 24.5096M30.3176 28.4215L30.3176 36.2596M30.3176 28.4215L23.5371 32.3333V40.1666M37.0981 24.5096L43.8783 20.598M37.0981 24.5096V32.3527M43.8783 20.598V28.4459M23.5371 40.1666L30.3176 36.2596M23.5371 40.1666V48L30.3176 44.0833M30.3176 36.2596L37.0981 32.3527M30.3176 36.2596V44.0833M37.0981 32.3527L43.8783 28.4459M37.0981 32.3527V40.1665M43.8783 28.4459V36.25L37.0981 40.1665M30.3176 44.0833L37.0981 40.1665"/></g></g></svg>