<svg preserveAspectRatio="none" width="100%" height="100%" overflow="visible" style="display: block;" viewBox="0 0 47.5 49.5" fill="none" xmlns="http://www.w3.org/2000/svg">
<g id="#093">
<path id="Vector" d="M23.7875 1.00002L44.3451 12.875M23.7875 1.00002L3.23 12.875M23.7875 1.00002L30.64 12.875M23.7875 1.00002L16.935 12.875M44.3451 12.875V36.625M44.3451 12.875L37.4926 24.75M44.3451 12.875H30.64M44.3451 36.625L23.7875 48.5M44.3451 36.625L37.4926 24.75M44.3451 36.625H30.64M23.7875 48.5L3.23 36.625M23.7875 48.5L30.64 36.625M23.7875 48.5L16.935 36.625M3.23 36.625V12.875M3.23 36.625H16.935M3.23 36.625L10.0825 24.75M3.23 12.875L10.0825 24.75M3.23 12.875H16.935M30.64 12.875L37.4926 24.75M30.64 12.875H16.935M37.4926 24.75L30.64 36.625M16.935 12.875L10.0825 24.75M10.0825 24.75L16.935 36.625M16.935 36.625H30.64" stroke="var(--stroke-0, #BCA530)" stroke-width="2" stroke-linejoin="round"/>
<path id="Vector_2" d="M3.23 12.875V36.625L10.0825 24.75L3.23 12.875Z" stroke="var(--stroke-0, #BCA530)" stroke-width="2" stroke-linejoin="round"/>
<path id="Vector_3" d="M3.23 36.625L23.7875 48.5L16.935 36.625H3.23Z" stroke="var(--stroke-0, #BCA530)" stroke-width="2" stroke-linejoin="round"/>
<path id="Vector_4" d="M23.7875 48.5L44.345 36.625H30.64L23.7875 48.5Z" stroke="var(--stroke-0, #BCA530)" stroke-width="2" stroke-linejoin="round"/>
<path id="Vector_5" d="M44.3452 36.625V12.875L37.4927 24.75L44.3452 36.625Z" stroke="var(--stroke-0, #BCA530)" stroke-width="2" stroke-linejoin="round"/>
<path id="Vector_6" d="M44.345 12.875L23.7875 1.00002L30.64 12.875H44.345Z" stroke="var(--stroke-0, #BCA530)" stroke-width="2" stroke-linejoin="round"/>
<path id="Vector_7" d="M23.7875 1.00002L3.23 12.875H16.935L23.7875 1.00002Z" stroke="var(--stroke-0, #BCA530)" stroke-width="2" stroke-linejoin="round"/>
<g id="Vector_8">
<path d="M30.64 12.875L23.7875 1.00002L16.935 12.875H30.64Z" stroke="var(--stroke-0, #BCA530)" stroke-width="2" stroke-linejoin="round"/>
<path d="M16.935 36.625L10.0825 24.75L3.23 36.625H16.935Z" stroke="var(--stroke-0, #BCA530)" stroke-width="2" stroke-linejoin="round"/>
<path d="M44.3451 36.625L37.4926 24.75L30.64 36.625H44.3451Z" stroke="var(--stroke-0, #BCA530)" stroke-width="2" stroke-linejoin="round"/>
</g>
<path id="Vector_9" d="M16.9351 12.875L10.0826 24.75L16.9351 36.625H30.6402L37.4927 24.75L30.6402 12.875H16.9351Z" stroke="var(--stroke-0, #BCA530)" stroke-width="2" stroke-linejoin="round"/>
<path id="Vector_10" d="M30.64 12.875L37.4926 24.75M30.64 12.875H44.3451L37.4926 24.75M30.64 12.875H16.935M37.4926 24.75L30.64 36.625M16.935 12.875L10.0825 24.75M16.935 12.875H3.23L10.0825 24.75M10.0825 24.75L16.935 36.625M16.935 36.625H30.64M16.935 36.625L23.7875 48.5L30.64 36.625" stroke="var(--stroke-0, #BCA530)" stroke-width="2" stroke-linejoin="round"/>
</g>
</svg>
